<svg width="33" height="32" viewBox="0 0 33 32" fill="none" xmlns="http://www.w3.org/2000/svg">
<path fill-rule="evenodd" clip-rule="evenodd" d="M1.3125 0C0.760215 0 0.3125 0.447715 0.3125 0.999999V17.4889C0.3125 17.5032 0.312802 17.5175 0.313401 17.5317L0.313401 22.0442L2.46709 18.4889H23.9279C24.4802 18.4889 24.9279 18.0412 24.9279 17.4889V1C24.9279 0.447715 24.4802 0 23.9279 0H1.3125Z" fill="#EBEBEB"/>
<path fill-rule="evenodd" clip-rule="evenodd" d="M30.1577 28.4445H8.69711C8.14483 28.4445 7.69711 27.9967 7.69711 27.4445V23.8222V20.9111C7.69711 20.3588 8.14483 19.9111 8.69711 19.9111H25.1587C25.7109 19.9111 26.1587 19.4634 26.1587 18.9111V10.9556C26.1587 10.4033 26.6064 9.95557 27.1587 9.95557H31.3125C31.8648 9.95557 32.3125 10.4033 32.3125 10.9556V27.4445C32.3125 27.4588 32.3122 27.4731 32.3116 27.4873L32.3116 32.0001L30.1577 28.4445Z" fill="#EBEBEB"/>
</svg>
