<svg width="32" height="32" viewBox="0 0 32 32" fill="none" xmlns="http://www.w3.org/2000/svg">
<path d="M0 12.1286C0 11.812 0.149913 11.5142 0.404167 11.3255L15.4042 0.196892C15.758 -0.0656307 16.242 -0.0656305 16.5958 0.196892L31.5958 11.3255C31.8501 11.5142 32 11.812 32 12.1286V30.9749C32 31.5272 31.5523 31.9749 31 31.9749H20.5556C20.0033 31.9749 19.5556 31.5272 19.5556 30.9749V22.8001C19.5556 22.2478 19.1078 21.8001 18.5556 21.8001H16H13.4444C12.8922 21.8001 12.4444 22.2478 12.4444 22.8001V30.9749C12.4444 31.5272 11.9967 31.9749 11.4444 31.9749H0.999999C0.447714 31.9749 0 31.5272 0 30.9749V12.1286Z" fill="#161515"/>
</svg>
