<svg width="32" height="32" viewBox="0 0 32 32" fill="none" xmlns="http://www.w3.org/2000/svg">
<path d="M14.9709 20.2539L0.612919 11.8784C-0.094446 11.4657 -0.07818 10.4382 0.641889 10.0481L14.9999 2.27089C15.3119 2.10189 15.6881 2.1019 16.0001 2.27089L30.3581 10.0481C31.0782 10.4382 31.0944 11.4657 30.3871 11.8784L16.0291 20.2539C15.7021 20.4446 15.2979 20.4446 14.9709 20.2539Z" fill="#EBEBEB"/>
<path d="M16.0495 22.2937L24.2203 17.3911C24.9202 16.9712 25.8105 17.4754 25.8105 18.2915V22.0626C25.8105 22.4136 25.6351 22.7415 25.343 22.9362L16.0621 29.1235C15.7187 29.3524 15.2731 29.3589 14.9232 29.1402L4.99155 22.933C4.68455 22.7411 4.49805 22.4046 4.49805 22.0426V17.644C4.49805 16.8193 5.4052 16.3165 6.10455 16.7536L14.9527 22.2837C15.2874 22.4929 15.7111 22.4967 16.0495 22.2937Z" fill="#EBEBEB"/>
</svg>
